<?xml version="1.0" encoding="utf-8"?>
<!-- Generator: Adobe Illustrator 21.0.0, SVG Export Plug-In . SVG Version: 6.00 Build 0)  -->
<svg version="1.1" id="Layer_1" xmlns="http://www.w3.org/2000/svg" xmlns:xlink="http://www.w3.org/1999/xlink" x="0px" y="0px"
	 viewBox="0 0 297 213" style="enable-background:new 0 0 297 213;" xml:space="preserve">
<style type="text/css">
	.st0{fill:#657059;}
	.st1{fill:#353D2F;}
</style>
<g>
	<g id="_x31_2b4Ut.tif">
		<g>
			<path class="st0" d="M0,194c0-34.33,0-68.67,0-103c38.35,0,76.7,0,115.39,0c-10.89,30.95-5.63,57.48,19.65,77.65
				c21.72,17.33,46.73,19.58,70.65,5.66c32.42-18.88,40.06-48.03,28.51-83.3c21.18,0,42,0,62.81,0c0,34.33,0,68.67,0,103
				c-3.32,9.35-9.56,15.78-19,19c-86.33,0-172.67,0-259,0C9.5,209.84,3.19,203.48,0,194z"/>
			<path class="st0" d="M297,44c0,13.67,0,27.33,0,41c-20.66-0.06-41.32-0.17-61.98-0.12c-3.27,0.01-5.32-0.79-7.34-3.7
				c-26.15-37.66-79.46-37.76-105.95-0.21c-1.98,2.8-3.97,3.81-7.32,3.8C78.26,84.64,42.1,84.65,5.95,84.64
				C3.97,84.64,1.98,84.88,0,85c0-14,0-28,0-42c6.06-15.19,17.9-18.53,33.19-18.41c68.45,0.51,136.9,0.22,205.35,0.22
				c11.16,0,22.32-0.07,33.48,0.03c11.49,0.1,19.65,5.89,23.68,16.54C296.04,42.29,296.56,43.13,297,44z"/>
			<path class="st0" d="M227.9,21.09c12.94,0,25.55,0,38.62,0c-1.03-2.77-2.06-4.89-2.6-7.12c-0.93-3.88-3.02-5.33-7.1-4.98
				c-4.62,0.41-9.3,0.09-13.95,0.09c-11.3,0-11.3,0-14.88,11C227.94,20.24,227.96,20.41,227.9,21.09z M38.33,21.04
				c8.71,0,17.06,0,25.45,0c-0.88-7.76-0.88-7.76-7.92-7.76c-2.99,0-5.98,0-8.98,0C39.57,13.28,39.57,13.28,38.33,21.04z"/>
			<path class="st0" d="M185,0c2.73,4.86,5.44,9.72,8.21,14.56c1.21,2.11,2.54,4.15,4.2,6.84c-33.41,0-66,0-99.37,0
				C102.87,14,107.44,7,112,0C136.33,0,160.67,0,185,0z M160.38,16.87c0-4.16,0-7.87,0-11.64c-8.33,0-16.25,0-24.49,0
				c0,3.97,0,7.67,0,11.64C144.12,16.87,152.03,16.87,160.38,16.87z"/>
			<path class="st0" d="M227.9,21.09c0.05-0.68,0.03-0.85,0.08-1.01c3.58-11,3.58-11,14.88-11c4.65,0,9.34,0.31,13.95-0.09
				c4.08-0.36,6.17,1.09,7.1,4.98c0.54,2.23,1.57,4.35,2.6,7.12C253.45,21.09,240.85,21.09,227.9,21.09z"/>
			<path class="st0" d="M38.33,21.04c1.24-7.76,1.24-7.76,8.55-7.76c2.99,0,5.98,0,8.98,0c7.04,0,7.04,0,7.92,7.76
				C55.39,21.04,47.04,21.04,38.33,21.04z"/>
		</g>
	</g>
	<g id="ooha4p.tif">
		<g>
			<path class="st1" d="M180.01,80.1c0.67-4.13,2.08-7.83,4.61-11.11c0.67-0.86,1.35-1.72,2.07-2.54c1.04-1.2,2.48-1.89,4-2.28
				c0.85-0.22,1.91-0.24,2.73,0.03c3.84,1.25,6.64,3.61,8.14,7.26c0.47,1.14-0.25,2.67-1.61,3.14c-1.54,0.53-3.05,1.18-4.48,1.94
				c-1.68,0.89-2.73,2.26-3.3,4.06c-0.73,2.28-0.85,2.25,1.47,3.28c5.79,2.57,10.72,6.17,14.56,11.03c2.08,2.63,3.86,5.48,5.02,8.57
				c0.96,2.57,1.65,5.25,2.22,7.93c0.42,1.98,0.48,4.04,0.64,6.06c0.17,2.11-0.77,3.88-2.54,4.98c-1.38,0.86-1.77,1.97-2.01,3.3
				c-0.71,4-2.54,7.57-4.71,11.03c-4.27,6.83-10.15,12.23-16.91,16.76c-4.26,2.86-8.86,5.26-13.81,6.93
				c-3.11,1.05-6.33,1.71-9.66,1.56c-3.65-0.16-6.75-1.55-9.44-3.85c-0.64-0.54-1.41-0.95-2-1.53c-3.2-3.09-6.03-6.45-8.15-10.3
				c-1.19-2.16-2.45-4.29-3.41-6.54c-1.28-2.99-2.5-6.02-3.37-9.13c-1.29-4.59-2.06-9.29-1.72-14.07c0.23-3.28,0.68-6.55,2.04-9.63
				c0.31-0.7,0.23-1.28-0.18-1.93c-1.42-2.28-1.27-4.61,0.1-6.81c1.86-2.99,3.96-5.86,6.71-8.18c3.69-3.12,7.73-5.78,12.46-7.33
				c2.55-0.84,5.13-1.73,7.77-2.2c3.79-0.67,7.65-0.98,11.53-0.49C179.17,80.08,179.58,80.08,180.01,80.1z"/>
		</g>
	</g>
</g>
</svg>
