<?xml version="1.0" encoding="utf-8"?>
<!-- Generator: Adobe Illustrator 21.0.0, SVG Export Plug-In . SVG Version: 6.00 Build 0)  -->
<svg version="1.1" id="Layer_1" xmlns="http://www.w3.org/2000/svg" xmlns:xlink="http://www.w3.org/1999/xlink" x="0px" y="0px"
	 viewBox="0 0 297 213" style="enable-background:new 0 0 297 213;" xml:space="preserve">
<style type="text/css">
	.st0{fill:#D4D6D8;}
	.st1{fill:#EBEDEE;}
</style>
<g>
	<g id="_x31_2b4Ut.tif">
		<g>
			<path class="st0" d="M38.2,171.49c0-25.5,0-51,0-76.5c28.48,0,56.97,0,85.71,0c-8.09,22.99-4.18,42.69,14.59,57.67
				c16.13,12.87,34.71,14.55,52.47,4.2c24.08-14.02,29.75-35.67,21.17-61.87c15.74,0,31.19,0,46.65,0c0,25.5,0,51,0,76.5
				c-2.46,6.94-7.1,11.72-14.11,14.11c-64.12,0-128.25,0-192.37,0C45.25,183.25,40.57,178.53,38.2,171.49z"/>
			<path class="st0" d="M258.8,60.08c0,10.15,0,20.3,0,30.45c-15.34-0.04-30.69-0.13-46.03-0.09c-2.43,0.01-3.95-0.59-5.45-2.75
				c-19.42-27.98-59.02-28.04-78.7-0.16c-1.47,2.08-2.95,2.83-5.44,2.82c-26.85-0.1-53.71-0.09-80.57-0.1
				c-1.47,0-2.95,0.17-4.42,0.26c0-10.4,0-20.8,0-31.2c4.5-11.28,13.3-13.76,24.65-13.68c50.84,0.38,101.68,0.16,152.52,0.17
				c8.29,0,16.58-0.05,24.86,0.02c8.54,0.07,14.6,4.38,17.59,12.29C258.09,58.81,258.47,59.43,258.8,60.08z"/>
			<path class="st0" d="M207.48,43.06c9.61,0,18.98,0,28.68,0c-0.77-2.06-1.53-3.63-1.93-5.29c-0.69-2.88-2.24-3.96-5.27-3.7
				c-3.43,0.3-6.91,0.07-10.36,0.07c-8.39,0-8.39,0-11.05,8.17C207.5,42.43,207.52,42.56,207.48,43.06z M66.67,43.02
				c6.47,0,12.67,0,18.9,0c-0.66-5.76-0.66-5.76-5.88-5.76c-2.22,0-4.44,0-6.67,0C67.59,37.26,67.59,37.26,66.67,43.02z"/>
			<path class="st0" d="M175.61,27.4c2.03,3.61,4.04,7.22,6.1,10.81c0.9,1.57,1.89,3.09,3.12,5.08c-24.81,0-49.02,0-73.81,0
				c3.59-5.5,6.97-10.7,10.36-15.9C139.46,27.4,157.54,27.4,175.61,27.4z M157.32,39.93c0-3.09,0-5.84,0-8.64
				c-6.19,0-12.07,0-18.19,0c0,2.95,0,5.7,0,8.64C145.24,39.93,151.12,39.93,157.32,39.93z"/>
			<path class="st0" d="M207.48,43.06c0.04-0.5,0.03-0.63,0.06-0.75c2.66-8.17,2.66-8.17,11.05-8.17c3.46,0,6.93,0.23,10.36-0.07
				c3.03-0.27,4.58,0.81,5.27,3.7c0.4,1.66,1.16,3.23,1.93,5.29C226.45,43.06,217.09,43.06,207.48,43.06z"/>
			<path class="st0" d="M66.67,43.02c0.92-5.76,0.92-5.76,6.35-5.76c2.22,0,4.44,0,6.67,0c5.23,0,5.23,0,5.88,5.76
				C79.34,43.02,73.14,43.02,66.67,43.02z"/>
		</g>
	</g>
	<g id="ooha4p.tif">
		<g>
			<path class="st0" d="M171.9,86.89c0.49-3.06,1.54-5.81,3.42-8.25c0.49-0.64,1-1.28,1.53-1.89c0.77-0.89,1.84-1.4,2.97-1.7
				c0.63-0.16,1.42-0.18,2.03,0.02c2.85,0.93,4.93,2.68,6.04,5.39c0.35,0.85-0.19,1.98-1.2,2.33c-1.14,0.4-2.26,0.88-3.33,1.44
				c-1.25,0.66-2.03,1.67-2.45,3.01c-0.54,1.69-0.63,1.67,1.09,2.44c4.3,1.91,7.96,4.59,10.81,8.19c1.54,1.95,2.86,4.07,3.73,6.36
				c0.72,1.91,1.23,3.9,1.65,5.89c0.31,1.47,0.35,3,0.48,4.5c0.13,1.56-0.57,2.88-1.88,3.7c-1.03,0.64-1.32,1.46-1.49,2.45
				c-0.53,2.97-1.89,5.62-3.49,8.19c-3.17,5.07-7.54,9.08-12.56,12.45c-3.16,2.12-6.58,3.9-10.26,5.15
				c-2.31,0.78-4.7,1.27-7.18,1.16c-2.71-0.12-5.02-1.15-7.02-2.86c-0.47-0.4-1.04-0.71-1.49-1.13c-2.38-2.3-4.48-4.79-6.05-7.65
				c-0.88-1.6-1.82-3.19-2.53-4.86c-0.95-2.22-1.86-4.47-2.5-6.78c-0.96-3.41-1.53-6.9-1.28-10.45c0.17-2.43,0.51-4.86,1.51-7.15
				c0.23-0.52,0.17-0.95-0.13-1.43c-1.05-1.69-0.94-3.42,0.08-5.06c1.38-2.22,2.94-4.35,4.98-6.08c2.74-2.32,5.74-4.3,9.26-5.45
				c1.9-0.62,3.81-1.29,5.77-1.63c2.82-0.5,5.68-0.73,8.56-0.37C171.28,86.88,171.58,86.88,171.9,86.89z"/>
		</g>
	</g>
</g>
<path class="st0" d="M289,0h-4v4h4V0L289,0z M281,0h-4v4h4V0L281,0z M273,0h-4v4h4V0L273,0z M265,0h-4v4h4V0L265,0z M257,0h-4v4h4V0
	L257,0z M249,0h-4v4h4V0L249,0z M241,0h-4v4h4V0L241,0z M233,0h-4v4h4V0L233,0z M225,0h-4v4h4V0L225,0z M217,0h-4v4h4V0L217,0z
	 M209,0h-4v4h4V0L209,0z M201,0h-4v4h4V0L201,0z M193,0h-4v4h4V0L193,0z M185,0h-4v4h4V0L185,0z M177,0h-4v4h4V0L177,0z M169,0h-4v4
	h4V0L169,0z M161,0h-4v4h4V0L161,0z M153,0h-4v4h4V0L153,0z M145,0h-4v4h4V0L145,0z M137,0h-4v4h4V0L137,0z M129,0h-4v4h4V0L129,0z
	 M121,0h-4v4h4V0L121,0z M113,0h-4v4h4V0L113,0z M105,0h-4v4h4V0L105,0z M97,0h-4v4h4V0L97,0z M89,0h-4v4h4V0L89,0z M81,0h-4v4h4V0
	L81,0z M73,0h-4v4h4V0L73,0z M65,0h-4v4h4V0L65,0z M57,0h-4v4h4V0L57,0z M49,0h-4v4h4V0L49,0z M41,0h-4v4h4V0L41,0z M33,0h-4v4h4V0
	L33,0z M25,0h-4v4h4V0L25,0z M17,0h-4v4h4V0L17,0z M9,0H5v4h4V0L9,0z M4,0H0v4h1V3h3V0L4,0z M4,7H0v4h4V7L4,7z M4,15H0v4h4V15L4,15z
	 M4,23H0v4h4V23L4,23z M4,31H0v4h4V31L4,31z M4,39H0v4h4V39L4,39z M4,47H0v4h4V47L4,47z M4,55H0v4h4V55L4,55z M4,63H0v4h4V63L4,63z
	 M4,71H0v4h4V71L4,71z M4,79H0v4h4V79L4,79z M4,87H0v4h4V87L4,87z M4,95H0v4h4V95L4,95z M4,103H0v4h4V103L4,103z M4,111H0v4h4V111
	L4,111z M4,119H0v4h4V119L4,119z M4,127H0v4h4V127L4,127z M4,135H0v4h4V135L4,135z M4,143H0v4h4V143L4,143z M4,151H0v4h4V151L4,151z
	 M4,159H0v4h4V159L4,159z M4,167H0v4h4V167L4,167z M4,175H0v4h4V175L4,175z M4,183H0v4h4V183L4,183z M4,191H0v4h4V191L4,191z M4,199
	H0v4h4V199L4,199z M4,207H0v4h2v2h4v-4H4V207L4,207z M14,209h-4v4h4V209L14,209z M22,209h-4v4h4V209L22,209z M30,209h-4v4h4V209
	L30,209z M38,209h-4v4h4V209L38,209z M46,209h-4v4h4V209L46,209z M54,209h-4v4h4V209L54,209z M62,209h-4v4h4V209L62,209z M70,209h-4
	v4h4V209L70,209z M78,209h-4v4h4V209L78,209z M86,209h-4v4h4V209L86,209z M94,209h-4v4h4V209L94,209z M102,209h-4v4h4V209L102,209z
	 M110,209h-4v4h4V209L110,209z M118,209h-4v4h4V209L118,209z M126,209h-4v4h4V209L126,209z M134,209h-4v4h4V209L134,209z M142,209
	h-4v4h4V209L142,209z M150,209h-4v4h4V209L150,209z M158,209h-4v4h4V209L158,209z M166,209h-4v4h4V209L166,209z M174,209h-4v4h4V209
	L174,209z M182,209h-4v4h4V209L182,209z M190,209h-4v4h4V209L190,209z M198,209h-4v4h4V209L198,209z M206,209h-4v4h4V209L206,209z
	 M214,209h-4v4h4V209L214,209z M222,209h-4v4h4V209L222,209z M230,209h-4v4h4V209L230,209z M238,209h-4v4h4V209L238,209z M246,209
	h-4v4h4V209L246,209z M254,209h-4v4h4V209L254,209z M262,209h-4v4h4V209L262,209z M270,209h-4v4h4V209L270,209z M278,209h-4v4h4V209
	L278,209z M286,209h-4v4h4V209L286,209z M297,208h-4v1h-3v4h4v-1h3V208L297,208z M297,200h-4v4h4V200L297,200z M297,192h-4v4h4V192
	L297,192z M297,184h-4v4h4V184L297,184z M297,176h-4v4h4V176L297,176z M297,168h-4v4h4V168L297,168z M297,160h-4v4h4V160L297,160z
	 M297,152h-4v4h4V152L297,152z M297,144h-4v4h4V144L297,144z M297,136h-4v4h4V136L297,136z M297,128h-4v4h4V128L297,128z M297,120
	h-4v4h4V120L297,120z M297,112h-4v4h4V112L297,112z M297,104h-4v4h4V104L297,104z M297,96h-4v4h4V96L297,96z M297,88h-4v4h4V88
	L297,88z M297,80h-4v4h4V80L297,80z M297,72h-4v4h4V72L297,72z M297,64h-4v4h4V64L297,64z M297,56h-4v4h4V56L297,56z M297,48h-4v4h4
	V48L297,48z M297,40h-4v4h4V40L297,40z M297,32h-4v4h4V32L297,32z M297,24h-4v4h4V24L297,24z M297,16h-4v4h4V16L297,16z M297,8h-4v4
	h4V8L297,8z M297,0h-4v4h4V0L297,0z"/>
</svg>
