<?xml version="1.0" encoding="utf-8"?>
<!-- Generator: Adobe Illustrator 21.0.0, SVG Export Plug-In . SVG Version: 6.00 Build 0)  -->
<svg version="1.1" id="Layer_1" xmlns="http://www.w3.org/2000/svg" xmlns:xlink="http://www.w3.org/1999/xlink" x="0px" y="0px"
	 viewBox="0 0 297 213" style="enable-background:new 0 0 297 213;" xml:space="preserve">
<style type="text/css">
	.st0{fill:#D4D6D8;}
	.st1{fill:#EBEDEE;}
</style>
<g>
	<path class="st0" d="M139.13,39.93c6.12,0,12,0,18.19,0c0-3.09,0-5.84,0-8.64c-6.19,0-12.07,0-18.19,0
		C139.13,34.23,139.13,36.98,139.13,39.93z"/>
	<path class="st0" d="M0,0v213h297V0H0z M207.54,42.31c2.66-8.17,2.66-8.17,11.05-8.17c3.46,0,6.93,0.23,10.36-0.07
		c3.03-0.27,4.58,0.81,5.27,3.7c0.4,1.66,1.16,3.23,1.93,5.29c-9.71,0-19.07,0-28.68,0C207.52,42.56,207.5,42.43,207.54,42.31z
		 M121.39,27.4c18.07,0,36.15,0,54.22,0c2.03,3.61,4.04,7.22,6.1,10.81c0.9,1.57,1.89,3.09,3.12,5.08c-24.81,0-49.02,0-73.81,0
		C114.61,37.79,118,32.59,121.39,27.4z M73.02,37.26c2.22,0,4.44,0,6.67,0c5.23,0,5.23,0,5.88,5.76c-6.23,0-12.43,0-18.9,0
		C67.59,37.26,67.59,37.26,73.02,37.26z M258.8,171.49c-2.46,6.94-7.1,11.72-14.11,14.11c-64.12,0-128.25,0-192.37,0
		c-7.06-2.35-11.75-7.07-14.11-14.11c0-25.5,0-51,0-76.5c28.48,0,56.97,0,85.71,0c-8.09,22.99-4.18,42.69,14.59,57.67
		c16.13,12.87,34.71,14.55,52.47,4.2c24.08-14.02,29.75-35.67,21.17-61.87c15.74,0,31.19,0,46.65,0
		C258.8,120.49,258.8,145.99,258.8,171.49z M142.33,105.42c-1.05-1.69-0.94-3.42,0.08-5.06c1.38-2.22,2.94-4.35,4.98-6.08
		c2.74-2.32,5.74-4.3,9.26-5.45c1.9-0.62,3.81-1.29,5.77-1.63c2.82-0.5,5.68-0.73,8.56-0.37c0.3,0.04,0.6,0.04,0.92,0.05
		c0.49-3.06,1.54-5.81,3.42-8.25c0.49-0.64,1-1.28,1.53-1.89c0.77-0.89,1.84-1.4,2.97-1.7c0.63-0.16,1.42-0.18,2.03,0.02
		c2.85,0.93,4.93,2.68,6.04,5.39c0.35,0.85-0.19,1.98-1.2,2.33c-1.14,0.4-2.26,0.88-3.33,1.44c-1.25,0.66-2.03,1.67-2.45,3.01
		c-0.54,1.69-0.63,1.67,1.09,2.44c4.3,1.91,7.96,4.59,10.81,8.19c1.54,1.95,2.86,4.07,3.73,6.36c0.72,1.91,1.23,3.9,1.65,5.89
		c0.31,1.47,0.35,3,0.48,4.5c0.13,1.56-0.57,2.88-1.88,3.7c-1.03,0.64-1.32,1.46-1.49,2.45c-0.53,2.97-1.89,5.62-3.49,8.19
		c-3.17,5.07-7.54,9.08-12.56,12.45c-3.16,2.12-6.58,3.9-10.26,5.15c-2.31,0.78-4.7,1.27-7.18,1.16c-2.71-0.12-5.02-1.15-7.02-2.86
		c-0.47-0.4-1.04-0.71-1.49-1.13c-2.38-2.3-4.48-4.79-6.05-7.65c-0.88-1.6-1.82-3.19-2.53-4.86c-0.95-2.22-1.86-4.47-2.5-6.78
		c-0.96-3.41-1.53-6.9-1.28-10.45c0.17-2.43,0.51-4.86,1.51-7.15C142.7,106.33,142.63,105.9,142.33,105.42z M258.8,90.53
		c-15.34-0.04-30.69-0.13-46.03-0.09c-2.43,0.01-3.95-0.59-5.45-2.75c-19.42-27.98-59.02-28.04-78.7-0.16
		c-1.47,2.08-2.95,2.83-5.44,2.82c-26.85-0.1-53.71-0.09-80.57-0.1c-1.47,0-2.95,0.17-4.42,0.26c0-10.4,0-20.8,0-31.2
		c4.5-11.28,13.3-13.76,24.65-13.68c50.84,0.38,101.68,0.16,152.52,0.17c8.29,0,16.58-0.05,24.86,0.02
		c8.54,0.07,14.6,4.38,17.59,12.29c0.25,0.67,0.64,1.3,0.97,1.94C258.8,70.23,258.8,80.38,258.8,90.53z"/>
</g>
</svg>
