<svg height="0" width="0">
    <defs>
        <clipPath id="svgPath">
					<path fill="#FFFFFF" stroke="#000000" stroke-width="1.5794" stroke-miterlimit="10" class="st0" d="M88.44,36.08c-0.92-0.05-1.78-0.05-2.63-0.16c-8.21-1.1-16.39-0.39-24.42,1.11
						c-5.6,1.05-11.05,3.05-16.46,4.93c-10.02,3.47-18.58,9.44-26.4,16.43c-5.82,5.2-10.27,11.63-14.21,18.33
						C1.42,81.64,1.1,86.86,4.11,91.96c0.86,1.45,1.03,2.76,0.38,4.32c-2.87,6.9-3.82,14.23-4.32,21.57
						c-0.72,10.69,0.92,21.23,3.65,31.52c1.85,6.97,4.44,13.77,7.14,20.46c2.04,5.04,4.72,9.82,7.23,14.66
						c4.49,8.63,10.48,16.16,17.26,23.09c1.26,1.29,2.89,2.21,4.24,3.42c5.7,5.14,12.28,8.27,20.01,8.62
						c7.07,0.33,13.88-1.14,20.47-3.5c10.49-3.75,20.23-9.12,29.25-15.53c14.32-10.17,26.76-22.26,35.81-37.56
						c4.59-7.76,8.46-15.74,9.97-24.71c0.5-2.98,1.32-5.46,4.26-7.4c3.74-2.46,5.73-6.44,5.37-11.16c-0.35-4.54-0.47-9.14-1.36-13.58
						c-1.2-6-2.65-12.01-4.7-17.77c-2.46-6.93-6.22-13.31-10.62-19.2c-8.13-10.87-18.58-18.94-30.84-24.71
						c-4.91-2.31-4.66-2.24-3.11-7.35c1.22-4.04,3.44-7.11,7-9.09c3.03-1.69,6.23-3.15,9.48-4.34c2.88-1.06,4.41-4.46,3.42-7.03
						c-3.18-8.18-9.1-13.47-17.24-16.26c-1.75-0.6-3.99-0.56-5.79-0.07c-3.23,0.89-6.26,2.43-8.47,5.12c-1.52,1.85-2.96,3.76-4.38,5.7
						C92.85,18.54,89.85,26.84,88.44,36.08z"/>
					<path fill="#FFFFFF" stroke="#000000" stroke-width="1.5794" stroke-miterlimit="10" d="M88.44,36.08c1.41-9.24,4.41-17.54,9.77-24.89c1.41-1.93,2.86-3.85,4.38-5.7c2.21-2.69,5.24-4.23,8.47-5.12
						c1.8-0.5,4.04-0.53,5.79,0.07c8.14,2.79,14.06,8.08,17.24,16.26c1,2.56-0.53,5.97-3.42,7.03c-3.26,1.19-6.45,2.65-9.48,4.34
						c-3.56,1.99-5.78,5.05-7,9.09c-1.54,5.11-1.79,5.04,3.11,7.35c12.26,5.77,22.72,13.83,30.84,24.71c4.4,5.89,8.17,12.27,10.62,19.2
						c2.04,5.76,3.5,11.77,4.7,17.77c0.89,4.44,1.01,9.04,1.36,13.58c0.36,4.72-1.63,8.7-5.37,11.16c-2.93,1.93-3.76,4.41-4.26,7.4
						c-1.51,8.97-5.38,16.95-9.97,24.71c-9.05,15.3-21.5,27.39-35.81,37.56c-9.02,6.41-18.76,11.78-29.25,15.53
						c-6.59,2.36-13.41,3.83-20.47,3.5c-7.73-0.36-14.31-3.48-20.01-8.62c-1.35-1.21-2.98-2.13-4.24-3.42
						c-6.77-6.92-12.77-14.46-17.26-23.09c-2.51-4.83-5.19-9.62-7.23-14.66c-2.71-6.69-5.3-13.5-7.14-20.46
						c-2.73-10.28-4.37-20.82-3.65-31.52c0.49-7.34,1.45-14.68,4.32-21.57c0.65-1.56,0.48-2.87-0.38-4.32
						c-3.01-5.1-2.69-10.32,0.22-15.25c3.95-6.7,8.39-13.12,14.21-18.33c7.82-6.99,16.38-12.96,26.4-16.43
						c5.41-1.87,10.86-3.88,16.46-4.93c8.03-1.5,16.21-2.21,24.42-1.11C86.66,36.03,87.52,36.03,88.44,36.08z"/>
        </clipPath>
    </defs>
</svg>
